<svg width="16" height="16" viewBox="0 0 16 16" fill="none" xmlns="http://www.w3.org/2000/svg">
<g clip-path="url(#clip0_1922_20439)">
<path fill-rule="evenodd" clip-rule="evenodd" d="M3.22788 0.0800767C3.33917 0.00815238 3.47445 -0.0166598 3.60401 0.0110903C3.73357 0.0388405 3.84682 0.116884 3.91888 0.228077L10.7399 10.7201C10.7757 10.7751 10.8004 10.8366 10.8125 10.9012C10.8245 10.9658 10.8238 11.0321 10.8102 11.0963C10.7966 11.1606 10.7706 11.2215 10.7334 11.2757C10.6963 11.3299 10.6489 11.3762 10.5939 11.4121C10.5389 11.4479 10.4773 11.4726 10.4128 11.4847C10.3482 11.4967 10.2819 11.496 10.2176 11.4824C10.1534 11.4688 10.0924 11.4428 10.0383 11.4056C9.98407 11.3685 9.93774 11.3211 9.90188 11.2661L3.07988 0.772077C3.00787 0.660916 2.9829 0.525723 3.01046 0.396171C3.03802 0.26662 3.11586 0.153297 3.22688 0.0810767L3.22788 0.0800767Z" fill="#E0DFDF"/>
<path fill-rule="evenodd" clip-rule="evenodd" d="M7.85389 6.74309L5.25889 10.7431C5.18863 10.8543 5.16506 10.9888 5.19328 11.1173C5.22149 11.2458 5.29923 11.358 5.40962 11.4296C5.52002 11.5012 5.65418 11.5264 5.78302 11.4997C5.91186 11.473 6.02499 11.3966 6.09789 11.2871L8.44989 7.66109L7.85389 6.74309ZM9.19389 6.51309L12.9199 0.77309C12.9578 0.718098 12.9843 0.656064 12.9979 0.590654C13.0114 0.525243 13.0117 0.457781 12.9988 0.392251C12.9858 0.326722 12.9598 0.264454 12.9224 0.209123C12.885 0.153793 12.8369 0.106523 12.7809 0.0701046C12.7249 0.033686 12.6621 0.00885717 12.5964 -0.00291559C12.5306 -0.0146884 12.4632 -0.0131664 12.398 0.0015604C12.3329 0.0162872 12.2713 0.0439203 12.217 0.0828278C12.1627 0.121735 12.1168 0.171128 12.0819 0.22809L8.59789 5.59509L9.19489 6.51309H9.19389Z" fill="#E0DFDF"/>
<path fill-rule="evenodd" clip-rule="evenodd" d="M4 11C3.46957 11 2.96086 11.2107 2.58579 11.5858C2.21071 11.9609 2 12.4696 2 13C2 13.5304 2.21071 14.0391 2.58579 14.4142C2.96086 14.7893 3.46957 15 4 15C4.53043 15 5.03914 14.7893 5.41421 14.4142C5.78929 14.0391 6 13.5304 6 13C6 12.4696 5.78929 11.9609 5.41421 11.5858C5.03914 11.2107 4.53043 11 4 11ZM1 13C1 12.606 1.0776 12.2159 1.22836 11.8519C1.37913 11.488 1.6001 11.1573 1.87868 10.8787C2.15726 10.6001 2.48797 10.3791 2.85195 10.2284C3.21593 10.0776 3.60603 10 4 10C4.39397 10 4.78407 10.0776 5.14805 10.2284C5.51203 10.3791 5.84274 10.6001 6.12132 10.8787C6.3999 11.1573 6.62087 11.488 6.77164 11.8519C6.9224 12.2159 7 12.606 7 13C7 13.7956 6.68393 14.5587 6.12132 15.1213C5.55871 15.6839 4.79565 16 4 16C3.20435 16 2.44129 15.6839 1.87868 15.1213C1.31607 14.5587 1 13.7956 1 13ZM12 11C11.4696 11 10.9609 11.2107 10.5858 11.5858C10.2107 11.9609 10 12.4696 10 13C10 13.5304 10.2107 14.0391 10.5858 14.4142C10.9609 14.7893 11.4696 15 12 15C12.5304 15 13.0391 14.7893 13.4142 14.4142C13.7893 14.0391 14 13.5304 14 13C14 12.4696 13.7893 11.9609 13.4142 11.5858C13.0391 11.2107 12.5304 11 12 11ZM9 13C9 12.2044 9.31607 11.4413 9.87868 10.8787C10.4413 10.3161 11.2044 10 12 10C12.7956 10 13.5587 10.3161 14.1213 10.8787C14.6839 11.4413 15 12.2044 15 13C15 13.7956 14.6839 14.5587 14.1213 15.1213C13.5587 15.6839 12.7956 16 12 16C11.2044 16 10.4413 15.6839 9.87868 15.1213C9.31607 14.5587 9 13.7956 9 13Z" fill="#60CDFF"/>
</g>
<defs>
<clipPath id="clip0_1922_20439">
<rect width="16" height="16" fill="white"/>
</clipPath>
</defs>
</svg>
