<svg width="16" height="16" viewBox="0 0 16 16" fill="none" xmlns="http://www.w3.org/2000/svg">
<g clip-path="url(#clip0_1922_20429)">
<path fill-rule="evenodd" clip-rule="evenodd" d="M8 1.06667C6.16117 1.06667 4.39765 1.79714 3.09739 3.09739C1.79714 4.39765 1.06667 6.16117 1.06667 8C1.06667 9.83883 1.79714 11.6024 3.09739 12.9026C4.39765 14.2029 6.16117 14.9333 8 14.9333C9.83883 14.9333 11.6024 14.2029 12.9026 12.9026C14.2029 11.6024 14.9333 9.83883 14.9333 8C14.9333 6.16117 14.2029 4.39765 12.9026 3.09739C11.6024 1.79714 9.83883 1.06667 8 1.06667ZM0 8C0 5.87827 0.842855 3.84344 2.34315 2.34315C3.84344 0.842855 5.87827 0 8 0C10.1217 0 12.1566 0.842855 13.6569 2.34315C15.1571 3.84344 16 5.87827 16 8C16 10.1217 15.1571 12.1566 13.6569 13.6569C12.1566 15.1571 10.1217 16 8 16C5.87827 16 3.84344 15.1571 2.34315 13.6569C0.842855 12.1566 0 10.1217 0 8H0Z" fill="#E0DFDF"/>
<path fill-rule="evenodd" clip-rule="evenodd" d="M8 4.5C8.13261 4.5 8.25979 4.55268 8.35355 4.64645C8.44732 4.74021 8.5 4.86739 8.5 5V7.5H11C11.1326 7.5 11.2598 7.55268 11.3536 7.64645C11.4473 7.74021 11.5 7.86739 11.5 8C11.5 8.13261 11.4473 8.25979 11.3536 8.35355C11.2598 8.44732 11.1326 8.5 11 8.5H8.5V11C8.5 11.1326 8.44732 11.2598 8.35355 11.3536C8.25979 11.4473 8.13261 11.5 8 11.5C7.86739 11.5 7.74021 11.4473 7.64645 11.3536C7.55268 11.2598 7.5 11.1326 7.5 11V8.5H5C4.86739 8.5 4.74021 8.44732 4.64645 8.35355C4.55268 8.25979 4.5 8.13261 4.5 8C4.5 7.86739 4.55268 7.74021 4.64645 7.64645C4.74021 7.55268 4.86739 7.5 5 7.5H7.5V5C7.5 4.86739 7.55268 4.74021 7.64645 4.64645C7.74021 4.55268 7.86739 4.5 8 4.5Z" fill="#60CDFF"/>
</g>
<defs>
<clipPath id="clip0_1922_20429">
<rect width="16" height="16" fill="white"/>
</clipPath>
</defs>
</svg>
